<?xml version="1.0" encoding="UTF-8" standalone="no"?>
<!-- Created with Inkscape (http://www.inkscape.org/) -->

<svg
   width="17.887512mm"
   height="18.638428mm"
   viewBox="0 0 17.887512 18.638429"
   version="1.1"
   id="svg1"
   xml:space="preserve"
   inkscape:version="1.4.3 (0d15f75, 2025-12-25)"
   sodipodi:docname="paw.svg"
   xmlns:inkscape="http://www.inkscape.org/namespaces/inkscape"
   xmlns:sodipodi="http://sodipodi.sourceforge.net/DTD/sodipodi-0.dtd"
   xmlns="http://www.w3.org/2000/svg"
   xmlns:svg="http://www.w3.org/2000/svg"><sodipodi:namedview
     id="namedview1"
     pagecolor="#505050"
     bordercolor="#ffffff"
     borderopacity="1"
     inkscape:showpageshadow="0"
     inkscape:pageopacity="0"
     inkscape:pagecheckerboard="1"
     inkscape:deskcolor="#d1d1d1"
     inkscape:document-units="mm"
     inkscape:zoom="5.6290381"
     inkscape:cx="-15.722047"
     inkscape:cy="-10.74784"
     inkscape:window-width="2560"
     inkscape:window-height="1351"
     inkscape:window-x="-9"
     inkscape:window-y="629"
     inkscape:window-maximized="1"
     inkscape:current-layer="layer1"><inkscape:page
       x="1.7075173e-07"
       y="0"
       width="17.887512"
       height="18.63843"
       id="page1"
       margin="33.184326 81.221687 136.12154 93.254532"
       bleed="0" /></sodipodi:namedview><defs
     id="defs1" /><g
     inkscape:label="Layer 1"
     inkscape:groupmode="layer"
     id="layer1"
     transform="translate(-102.08159,-133.40191)"><path
       style="fill:#000000"
       d="m 113.29283,151.77705 c -1.81973,0.61874 -3.42854,0.12701 -4.14107,-1.2657 -0.39457,-0.77124 -0.42457,-1.34929 -0.15155,-2.92099 0.13099,-0.75409 0.1506,-1.54224 0.0436,-1.75144 -0.2473,-0.48337 0.0496,-1.28239 0.93801,-2.5244 0.64826,-0.90626 0.77187,-0.99632 1.64237,-1.19668 2.32047,-0.53408 6.39232,1.1679 7.86058,3.28565 0.47777,0.6891 0.56572,1.54876 0.17871,1.74676 -0.13357,0.0683 -0.27749,0.27932 -0.31984,0.46885 -0.0722,0.32332 -0.75608,0.88596 -3.40816,2.80411 -1.19632,0.86525 -1.17785,0.85579 -2.64246,1.35416 z m -7.32044,-3.01873 c -0.3386,-0.0484 -0.77618,-0.16463 -0.97239,-0.25832 -0.59039,-0.28188 -2.288,-2.09921 -2.68406,-2.87335 -0.331,-0.64698 -0.32115,-0.77835 0.0922,-1.23376 0.39637,-0.43675 0.56818,-0.50118 1.20019,-0.45007 2.10638,0.17031 4.44462,2.18783 4.21327,3.63537 -0.1029,0.64389 -1.10893,1.28592 -1.84916,1.18013 z m 12.06887,-6.40348 c -0.48034,0.0358 -1.32664,-0.70637 -1.75078,-1.53539 -0.46534,-0.90958 -0.5233,-1.84338 -0.18734,-3.01853 0.32133,-1.12395 1.38791,-1.70177 2.33744,-1.26629 0.54122,0.24823 0.72761,0.48235 1.14059,1.43271 0.40727,0.93723 0.46172,1.34866 0.31119,2.35153 -0.1614,1.07526 -0.26262,1.26168 -0.87704,1.61535 -0.38201,0.21993 -0.82018,0.40951 -0.97406,0.42061 z m -11.23989,0.32148 c -0.98275,-0.22659 -2.09102,-1.33204 -3.0005,-2.99285 -0.60496,-1.10473 -0.72795,-1.4797 -0.60755,-1.85235 0.20842,-0.64507 1.40846,-1.23242 2.12459,-1.0399 1.89017,0.50823 3.92585,3.96358 3.02802,5.13976 -0.61548,0.80631 -0.83034,0.90999 -1.54458,0.7453 z m 4.54628,-3.24432 c -0.62216,-0.20102 -0.73808,-0.3476 -1.58674,-2.0064 -0.7551,-1.47591 -0.89172,-1.88632 -0.77949,-2.34181 0.21146,-0.85836 0.81232,-1.41644 1.73707,-1.61341 1.1019,-0.2347 1.63711,0.10407 2.34239,1.48262 0.70511,1.3782 0.77175,2.66597 0.18727,3.61852 -0.53381,0.86997 -1.09071,1.12211 -1.90051,0.86045 z"
       id="path1"
       sodipodi:nodetypes="csssssssssccsssssssssssssssscsscscccssssscc" /></g></svg>
